<mxfile host="app.diagrams.net" modified="2023-03-10T13:32:12.076Z" agent="5.0 (Windows NT 10.0; Win64; x64) AppleWebKit/537.36 (KHTML, like Gecko) Chrome/111.0.0.0 Safari/537.36" etag="NMqawT7NFhrMr17aGCWn" version="21.0.6" type="github">
  <diagram name="Page-1" id="vaZ_NBMNZiOxB9OWbqFk">
    <mxGraphModel dx="1687" dy="936" grid="1" gridSize="10" guides="1" tooltips="1" connect="1" arrows="1" fold="1" page="1" pageScale="1" pageWidth="827" pageHeight="1169" math="0" shadow="0">
      <root>
        <mxCell id="0" />
        <mxCell id="1" parent="0" />
        <mxCell id="J-XPp05Y6ZuYuPJLKpOz-14" value="&lt;b&gt;&lt;font style=&quot;font-size: 20px;&quot;&gt;Scénarios de synchronisation des données&lt;/font&gt;&lt;/b&gt; &lt;font style=&quot;font-size: 17px;&quot;&gt;&lt;b&gt;MockupMaker &amp;lt;-&amp;gt;LiveAccess&lt;/b&gt;&lt;/font&gt;" style="text;html=1;strokeColor=none;fillColor=none;align=center;verticalAlign=middle;whiteSpace=wrap;rounded=0;" parent="1" vertex="1">
          <mxGeometry x="590" y="50" width="466" height="30" as="geometry" />
        </mxCell>
        <mxCell id="1g7mfqq3Kxb2D1oXxZ0o-6" value="" style="group" parent="1" vertex="1" connectable="0">
          <mxGeometry x="513.21" y="2171" width="60" height="90" as="geometry" />
        </mxCell>
        <mxCell id="1g7mfqq3Kxb2D1oXxZ0o-7" value="MockupMaker" style="text;html=1;strokeColor=none;fillColor=none;align=center;verticalAlign=middle;whiteSpace=wrap;rounded=0;" parent="1g7mfqq3Kxb2D1oXxZ0o-6" vertex="1">
          <mxGeometry y="60" width="60" height="30" as="geometry" />
        </mxCell>
        <mxCell id="1g7mfqq3Kxb2D1oXxZ0o-8" value="" style="sketch=0;pointerEvents=1;shadow=0;dashed=0;html=1;strokeColor=none;labelPosition=center;verticalLabelPosition=bottom;verticalAlign=top;align=center;fillColor=#7488a3;shape=mxgraph.mscae.system_center.roles" parent="1g7mfqq3Kxb2D1oXxZ0o-6" vertex="1">
          <mxGeometry x="18" width="42" height="50" as="geometry" />
        </mxCell>
        <mxCell id="1g7mfqq3Kxb2D1oXxZ0o-10" value="" style="sketch=0;aspect=fixed;html=1;points=[];align=center;image;fontSize=12;image=img/lib/mscae/Person.svg;" parent="1" vertex="1">
          <mxGeometry x="377.21" y="2246" width="37" height="50" as="geometry" />
        </mxCell>
        <mxCell id="1g7mfqq3Kxb2D1oXxZ0o-11" value="&lt;span style=&quot;color: rgb(0, 0, 0); font-family: Helvetica; font-size: 12px; font-style: normal; font-variant-ligatures: normal; font-variant-caps: normal; font-weight: 400; letter-spacing: normal; orphans: 2; text-align: center; text-indent: 0px; text-transform: none; widows: 2; word-spacing: 0px; -webkit-text-stroke-width: 0px; background-color: rgb(251, 251, 251); text-decoration-thickness: initial; text-decoration-style: initial; text-decoration-color: initial; float: none; display: inline !important;&quot;&gt;SuperAdmin&lt;/span&gt;" style="text;whiteSpace=wrap;html=1;" parent="1" vertex="1">
          <mxGeometry x="367.21" y="2306" width="70" height="30" as="geometry" />
        </mxCell>
        <mxCell id="1g7mfqq3Kxb2D1oXxZ0o-12" value="" style="group" parent="1" vertex="1" connectable="0">
          <mxGeometry x="1093.21" y="2081" width="130" height="47" as="geometry" />
        </mxCell>
        <mxCell id="1g7mfqq3Kxb2D1oXxZ0o-13" value="" style="sketch=0;pointerEvents=1;shadow=0;dashed=0;html=1;labelPosition=center;verticalLabelPosition=bottom;verticalAlign=top;align=center;shape=mxgraph.mscae.enterprise.database_server;fillColor=#515151;strokeColor=#515151;fontColor=#ffffff;" parent="1g7mfqq3Kxb2D1oXxZ0o-12" vertex="1">
          <mxGeometry x="5.74" y="-20" width="35.04" height="46.11" as="geometry" />
        </mxCell>
        <mxCell id="1g7mfqq3Kxb2D1oXxZ0o-14" value="LiveAccess FFF" style="text;html=1;strokeColor=none;fillColor=none;align=center;verticalAlign=middle;whiteSpace=wrap;rounded=0;" parent="1g7mfqq3Kxb2D1oXxZ0o-12" vertex="1">
          <mxGeometry x="-36.74" y="31.33" width="120" height="15.67" as="geometry" />
        </mxCell>
        <mxCell id="1g7mfqq3Kxb2D1oXxZ0o-15" value="" style="group" parent="1" vertex="1" connectable="0">
          <mxGeometry x="1093.21" y="2171" width="40.78" height="47" as="geometry" />
        </mxCell>
        <mxCell id="1g7mfqq3Kxb2D1oXxZ0o-16" value="" style="sketch=0;pointerEvents=1;shadow=0;dashed=0;html=1;labelPosition=center;verticalLabelPosition=bottom;verticalAlign=top;align=center;shape=mxgraph.mscae.enterprise.database_server;fillColor=#515151;strokeColor=#515151;fontColor=#ffffff;" parent="1g7mfqq3Kxb2D1oXxZ0o-15" vertex="1">
          <mxGeometry x="5.74" y="-20" width="35.04" height="46.11" as="geometry" />
        </mxCell>
        <mxCell id="1g7mfqq3Kxb2D1oXxZ0o-17" value="LiveAccess" style="text;html=1;strokeColor=none;fillColor=none;align=center;verticalAlign=middle;whiteSpace=wrap;rounded=0;" parent="1g7mfqq3Kxb2D1oXxZ0o-15" vertex="1">
          <mxGeometry x="10" y="31.333333333333332" width="31.33" height="15.666666666666666" as="geometry" />
        </mxCell>
        <mxCell id="1g7mfqq3Kxb2D1oXxZ0o-18" value="" style="group" parent="1" vertex="1" connectable="0">
          <mxGeometry x="1097.99" y="2291" width="40.78" height="47" as="geometry" />
        </mxCell>
        <mxCell id="1g7mfqq3Kxb2D1oXxZ0o-19" value="" style="sketch=0;pointerEvents=1;shadow=0;dashed=0;html=1;labelPosition=center;verticalLabelPosition=bottom;verticalAlign=top;align=center;shape=mxgraph.mscae.enterprise.database_server;fillColor=#515151;strokeColor=#515151;fontColor=#ffffff;" parent="1g7mfqq3Kxb2D1oXxZ0o-18" vertex="1">
          <mxGeometry x="5.74" y="-20" width="35.04" height="46.11" as="geometry" />
        </mxCell>
        <mxCell id="1g7mfqq3Kxb2D1oXxZ0o-20" value="LiveAccess" style="text;html=1;strokeColor=none;fillColor=none;align=center;verticalAlign=middle;whiteSpace=wrap;rounded=0;" parent="1g7mfqq3Kxb2D1oXxZ0o-18" vertex="1">
          <mxGeometry x="10" y="31.333333333333332" width="31.33" height="15.666666666666666" as="geometry" />
        </mxCell>
        <mxCell id="1g7mfqq3Kxb2D1oXxZ0o-36" value="" style="group" parent="1" vertex="1" connectable="0">
          <mxGeometry x="573.21" y="2261" width="70" height="60" as="geometry" />
        </mxCell>
        <mxCell id="1g7mfqq3Kxb2D1oXxZ0o-34" value="" style="aspect=fixed;perimeter=ellipsePerimeter;html=1;align=center;shadow=0;dashed=0;spacingTop=3;image;image=img/lib/active_directory/database.svg;" parent="1g7mfqq3Kxb2D1oXxZ0o-36" vertex="1">
          <mxGeometry x="14.729999999999905" width="40.54" height="30" as="geometry" />
        </mxCell>
        <mxCell id="1g7mfqq3Kxb2D1oXxZ0o-35" value="Table SuperAdmin" style="text;html=1;strokeColor=none;fillColor=none;align=center;verticalAlign=middle;whiteSpace=wrap;rounded=0;" parent="1g7mfqq3Kxb2D1oXxZ0o-36" vertex="1">
          <mxGeometry y="30" width="70" height="30" as="geometry" />
        </mxCell>
        <mxCell id="D3cYJWHI2rNeeZ9iYBp1-7" style="edgeStyle=orthogonalEdgeStyle;rounded=0;orthogonalLoop=1;jettySize=auto;html=1;" edge="1" parent="1" source="1g7mfqq3Kxb2D1oXxZ0o-42">
          <mxGeometry relative="1" as="geometry">
            <mxPoint x="1110" y="2050" as="targetPoint" />
          </mxGeometry>
        </mxCell>
        <mxCell id="1g7mfqq3Kxb2D1oXxZ0o-42" value="" style="sketch=0;pointerEvents=1;shadow=0;dashed=0;html=1;labelPosition=center;verticalLabelPosition=bottom;verticalAlign=top;align=center;shape=mxgraph.mscae.enterprise.database_server;fillColor=#515151;strokeColor=#515151;fontColor=#ffffff;" parent="1" vertex="1">
          <mxGeometry x="781.95" y="1971" width="35.04" height="46.11" as="geometry" />
        </mxCell>
        <mxCell id="1g7mfqq3Kxb2D1oXxZ0o-43" value="Fournisseur d&#39;identité" style="text;html=1;strokeColor=none;fillColor=none;align=center;verticalAlign=middle;whiteSpace=wrap;rounded=0;" parent="1" vertex="1">
          <mxGeometry x="739.47" y="2031" width="120" height="15.67" as="geometry" />
        </mxCell>
        <mxCell id="1g7mfqq3Kxb2D1oXxZ0o-44" value="&lt;u style=&quot;font-weight: bold; font-size: 16px;&quot;&gt;Scénario 3,4,5&lt;/u&gt;&lt;b style=&quot;font-size: 16px;&quot;&gt;&amp;nbsp;: Authentification sur un tenant connu&amp;nbsp;&lt;/b&gt;" style="text;html=1;strokeColor=none;fillColor=none;align=center;verticalAlign=middle;whiteSpace=wrap;rounded=0;fontSize=16;" parent="1" vertex="1">
          <mxGeometry x="393.21" y="1891" width="770" height="30" as="geometry" />
        </mxCell>
        <mxCell id="1g7mfqq3Kxb2D1oXxZ0o-45" value="" style="group" parent="1" vertex="1" connectable="0">
          <mxGeometry x="503.21" y="1235" width="60" height="90" as="geometry" />
        </mxCell>
        <mxCell id="1g7mfqq3Kxb2D1oXxZ0o-46" value="MockupMaker" style="text;html=1;strokeColor=none;fillColor=none;align=center;verticalAlign=middle;whiteSpace=wrap;rounded=0;" parent="1g7mfqq3Kxb2D1oXxZ0o-45" vertex="1">
          <mxGeometry y="60" width="60" height="30" as="geometry" />
        </mxCell>
        <mxCell id="1g7mfqq3Kxb2D1oXxZ0o-47" value="" style="sketch=0;pointerEvents=1;shadow=0;dashed=0;html=1;strokeColor=none;labelPosition=center;verticalLabelPosition=bottom;verticalAlign=top;align=center;fillColor=#7488a3;shape=mxgraph.mscae.system_center.roles" parent="1g7mfqq3Kxb2D1oXxZ0o-45" vertex="1">
          <mxGeometry x="18" width="42" height="50" as="geometry" />
        </mxCell>
        <mxCell id="1g7mfqq3Kxb2D1oXxZ0o-48" value="" style="sketch=0;aspect=fixed;html=1;points=[];align=center;image;fontSize=12;image=img/lib/mscae/Person.svg;" parent="1" vertex="1">
          <mxGeometry x="270" y="1296" width="37" height="50" as="geometry" />
        </mxCell>
        <mxCell id="1g7mfqq3Kxb2D1oXxZ0o-49" value="&lt;span style=&quot;color: rgb(0, 0, 0); font-family: Helvetica; font-size: 12px; font-style: normal; font-variant-ligatures: normal; font-variant-caps: normal; font-weight: 400; letter-spacing: normal; orphans: 2; text-align: center; text-indent: 0px; text-transform: none; widows: 2; word-spacing: 0px; -webkit-text-stroke-width: 0px; background-color: rgb(251, 251, 251); text-decoration-thickness: initial; text-decoration-style: initial; text-decoration-color: initial; float: none; display: inline !important;&quot;&gt;SuperAdmin&lt;/span&gt;" style="text;whiteSpace=wrap;html=1;" parent="1" vertex="1">
          <mxGeometry x="260" y="1356" width="70" height="30" as="geometry" />
        </mxCell>
        <mxCell id="1g7mfqq3Kxb2D1oXxZ0o-50" value="" style="group" parent="1" vertex="1" connectable="0">
          <mxGeometry x="1083.21" y="1145" width="40.78" height="47" as="geometry" />
        </mxCell>
        <mxCell id="1g7mfqq3Kxb2D1oXxZ0o-51" value="" style="sketch=0;pointerEvents=1;shadow=0;dashed=0;html=1;labelPosition=center;verticalLabelPosition=bottom;verticalAlign=top;align=center;shape=mxgraph.mscae.enterprise.database_server;fillColor=#515151;strokeColor=#515151;fontColor=#ffffff;" parent="1g7mfqq3Kxb2D1oXxZ0o-50" vertex="1">
          <mxGeometry x="5.74" y="-20" width="35.04" height="46.11" as="geometry" />
        </mxCell>
        <mxCell id="1g7mfqq3Kxb2D1oXxZ0o-52" value="LiveAccess" style="text;html=1;strokeColor=none;fillColor=none;align=center;verticalAlign=middle;whiteSpace=wrap;rounded=0;" parent="1g7mfqq3Kxb2D1oXxZ0o-50" vertex="1">
          <mxGeometry x="10" y="31.333333333333332" width="31.33" height="15.666666666666666" as="geometry" />
        </mxCell>
        <mxCell id="1g7mfqq3Kxb2D1oXxZ0o-53" value="" style="group" parent="1" vertex="1" connectable="0">
          <mxGeometry x="1083.21" y="1235" width="40.78" height="47" as="geometry" />
        </mxCell>
        <mxCell id="1g7mfqq3Kxb2D1oXxZ0o-54" value="" style="sketch=0;pointerEvents=1;shadow=0;dashed=0;html=1;labelPosition=center;verticalLabelPosition=bottom;verticalAlign=top;align=center;shape=mxgraph.mscae.enterprise.database_server;fillColor=#515151;strokeColor=#515151;fontColor=#ffffff;" parent="1g7mfqq3Kxb2D1oXxZ0o-53" vertex="1">
          <mxGeometry x="5.74" y="-20" width="35.04" height="46.11" as="geometry" />
        </mxCell>
        <mxCell id="1g7mfqq3Kxb2D1oXxZ0o-55" value="LiveAccess" style="text;html=1;strokeColor=none;fillColor=none;align=center;verticalAlign=middle;whiteSpace=wrap;rounded=0;" parent="1g7mfqq3Kxb2D1oXxZ0o-53" vertex="1">
          <mxGeometry x="10" y="31.333333333333332" width="31.33" height="15.666666666666666" as="geometry" />
        </mxCell>
        <mxCell id="1g7mfqq3Kxb2D1oXxZ0o-56" value="" style="group" parent="1" vertex="1" connectable="0">
          <mxGeometry x="1087.99" y="1355" width="40.78" height="47" as="geometry" />
        </mxCell>
        <mxCell id="1g7mfqq3Kxb2D1oXxZ0o-57" value="" style="sketch=0;pointerEvents=1;shadow=0;dashed=0;html=1;labelPosition=center;verticalLabelPosition=bottom;verticalAlign=top;align=center;shape=mxgraph.mscae.enterprise.database_server;fillColor=#515151;strokeColor=#515151;fontColor=#ffffff;" parent="1g7mfqq3Kxb2D1oXxZ0o-56" vertex="1">
          <mxGeometry x="5.74" y="-20" width="35.04" height="46.11" as="geometry" />
        </mxCell>
        <mxCell id="1g7mfqq3Kxb2D1oXxZ0o-58" value="LiveAccess" style="text;html=1;strokeColor=none;fillColor=none;align=center;verticalAlign=middle;whiteSpace=wrap;rounded=0;" parent="1g7mfqq3Kxb2D1oXxZ0o-56" vertex="1">
          <mxGeometry x="10" y="31.333333333333332" width="31.33" height="15.666666666666666" as="geometry" />
        </mxCell>
        <mxCell id="1g7mfqq3Kxb2D1oXxZ0o-59" value="" style="group" parent="1" vertex="1" connectable="0">
          <mxGeometry x="563.21" y="1325" width="70" height="60" as="geometry" />
        </mxCell>
        <mxCell id="1g7mfqq3Kxb2D1oXxZ0o-60" value="" style="aspect=fixed;perimeter=ellipsePerimeter;html=1;align=center;shadow=0;dashed=0;spacingTop=3;image;image=img/lib/active_directory/database.svg;" parent="1g7mfqq3Kxb2D1oXxZ0o-59" vertex="1">
          <mxGeometry x="14.729999999999905" width="40.54" height="30" as="geometry" />
        </mxCell>
        <mxCell id="1g7mfqq3Kxb2D1oXxZ0o-61" value="Table SuperAdmin" style="text;html=1;strokeColor=none;fillColor=none;align=center;verticalAlign=middle;whiteSpace=wrap;rounded=0;" parent="1g7mfqq3Kxb2D1oXxZ0o-59" vertex="1">
          <mxGeometry y="30" width="70" height="30" as="geometry" />
        </mxCell>
        <mxCell id="D3cYJWHI2rNeeZ9iYBp1-16" style="edgeStyle=orthogonalEdgeStyle;rounded=0;orthogonalLoop=1;jettySize=auto;html=1;entryX=0;entryY=0.5;entryDx=0;entryDy=0;entryPerimeter=0;" edge="1" parent="1" source="1g7mfqq3Kxb2D1oXxZ0o-64" target="1g7mfqq3Kxb2D1oXxZ0o-54">
          <mxGeometry relative="1" as="geometry" />
        </mxCell>
        <mxCell id="D3cYJWHI2rNeeZ9iYBp1-18" style="edgeStyle=orthogonalEdgeStyle;rounded=0;orthogonalLoop=1;jettySize=auto;html=1;entryX=0;entryY=0.5;entryDx=0;entryDy=0;entryPerimeter=0;" edge="1" parent="1" source="1g7mfqq3Kxb2D1oXxZ0o-64" target="1g7mfqq3Kxb2D1oXxZ0o-57">
          <mxGeometry relative="1" as="geometry" />
        </mxCell>
        <mxCell id="D3cYJWHI2rNeeZ9iYBp1-19" style="edgeStyle=orthogonalEdgeStyle;rounded=0;orthogonalLoop=1;jettySize=auto;html=1;entryX=0;entryY=0.5;entryDx=0;entryDy=0;entryPerimeter=0;" edge="1" parent="1" source="1g7mfqq3Kxb2D1oXxZ0o-64" target="1g7mfqq3Kxb2D1oXxZ0o-51">
          <mxGeometry relative="1" as="geometry" />
        </mxCell>
        <mxCell id="1g7mfqq3Kxb2D1oXxZ0o-64" value="" style="sketch=0;pointerEvents=1;shadow=0;dashed=0;html=1;labelPosition=center;verticalLabelPosition=bottom;verticalAlign=top;align=center;shape=mxgraph.mscae.enterprise.database_server;fillColor=#515151;strokeColor=#515151;fontColor=#ffffff;" parent="1" vertex="1">
          <mxGeometry x="771.95" y="1035" width="35.04" height="46.11" as="geometry" />
        </mxCell>
        <mxCell id="1g7mfqq3Kxb2D1oXxZ0o-65" value="Fournisseur d&#39;identité" style="text;html=1;strokeColor=none;fillColor=none;align=center;verticalAlign=middle;whiteSpace=wrap;rounded=0;" parent="1" vertex="1">
          <mxGeometry x="729.47" y="1095" width="120" height="15.67" as="geometry" />
        </mxCell>
        <mxCell id="1g7mfqq3Kxb2D1oXxZ0o-66" value="&lt;u style=&quot;font-weight: bold; font-size: 16px;&quot;&gt;Scénario 2&lt;/u&gt;&lt;b style=&quot;font-size: 16px;&quot;&gt;&amp;nbsp;: Authentification multi-tenant&lt;/b&gt;" style="text;html=1;strokeColor=none;fillColor=none;align=center;verticalAlign=middle;whiteSpace=wrap;rounded=0;fontSize=16;" parent="1" vertex="1">
          <mxGeometry x="383.21" y="955" width="770" height="30" as="geometry" />
        </mxCell>
        <mxCell id="1g7mfqq3Kxb2D1oXxZ0o-71" value="" style="group" parent="1" vertex="1" connectable="0">
          <mxGeometry x="518.21" y="1145" width="160" height="60" as="geometry" />
        </mxCell>
        <mxCell id="1g7mfqq3Kxb2D1oXxZ0o-72" value="" style="aspect=fixed;perimeter=ellipsePerimeter;html=1;align=center;shadow=0;dashed=0;spacingTop=3;image;image=img/lib/active_directory/database.svg;" parent="1g7mfqq3Kxb2D1oXxZ0o-71" vertex="1">
          <mxGeometry x="59.72999999999995" width="40.54" height="30" as="geometry" />
        </mxCell>
        <mxCell id="1g7mfqq3Kxb2D1oXxZ0o-73" value="Table User &amp;lt;-&amp;gt; Table Tenant" style="text;html=1;strokeColor=none;fillColor=none;align=center;verticalAlign=middle;whiteSpace=wrap;rounded=0;" parent="1g7mfqq3Kxb2D1oXxZ0o-71" vertex="1">
          <mxGeometry y="30" width="160" height="30" as="geometry" />
        </mxCell>
        <mxCell id="1g7mfqq3Kxb2D1oXxZ0o-100" value="" style="group" parent="1" vertex="1" connectable="0">
          <mxGeometry x="428.79999999999995" y="551" width="60" height="90" as="geometry" />
        </mxCell>
        <mxCell id="1g7mfqq3Kxb2D1oXxZ0o-101" value="MockupMaker" style="text;html=1;strokeColor=none;fillColor=none;align=center;verticalAlign=middle;whiteSpace=wrap;rounded=0;" parent="1g7mfqq3Kxb2D1oXxZ0o-100" vertex="1">
          <mxGeometry y="60" width="60" height="30" as="geometry" />
        </mxCell>
        <mxCell id="1g7mfqq3Kxb2D1oXxZ0o-102" value="" style="sketch=0;pointerEvents=1;shadow=0;dashed=0;html=1;strokeColor=none;labelPosition=center;verticalLabelPosition=bottom;verticalAlign=top;align=center;fillColor=#7488a3;shape=mxgraph.mscae.system_center.roles" parent="1g7mfqq3Kxb2D1oXxZ0o-100" vertex="1">
          <mxGeometry x="18" width="42" height="50" as="geometry" />
        </mxCell>
        <mxCell id="1g7mfqq3Kxb2D1oXxZ0o-105" value="" style="group" parent="1" vertex="1" connectable="0">
          <mxGeometry x="1103.06" y="461" width="40.78" height="47" as="geometry" />
        </mxCell>
        <mxCell id="1g7mfqq3Kxb2D1oXxZ0o-106" value="" style="sketch=0;pointerEvents=1;shadow=0;dashed=0;html=1;labelPosition=center;verticalLabelPosition=bottom;verticalAlign=top;align=center;shape=mxgraph.mscae.enterprise.database_server;fillColor=#515151;strokeColor=#515151;fontColor=#ffffff;" parent="1g7mfqq3Kxb2D1oXxZ0o-105" vertex="1">
          <mxGeometry x="5.74" y="-20" width="35.04" height="46.11" as="geometry" />
        </mxCell>
        <mxCell id="1g7mfqq3Kxb2D1oXxZ0o-107" value="LiveAccess" style="text;html=1;strokeColor=none;fillColor=none;align=center;verticalAlign=middle;whiteSpace=wrap;rounded=0;" parent="1g7mfqq3Kxb2D1oXxZ0o-105" vertex="1">
          <mxGeometry x="10" y="31.333333333333332" width="31.33" height="15.666666666666666" as="geometry" />
        </mxCell>
        <mxCell id="1g7mfqq3Kxb2D1oXxZ0o-108" value="" style="group" parent="1" vertex="1" connectable="0">
          <mxGeometry x="1103.06" y="551" width="40.78" height="47" as="geometry" />
        </mxCell>
        <mxCell id="1g7mfqq3Kxb2D1oXxZ0o-109" value="" style="sketch=0;pointerEvents=1;shadow=0;dashed=0;html=1;labelPosition=center;verticalLabelPosition=bottom;verticalAlign=top;align=center;shape=mxgraph.mscae.enterprise.database_server;fillColor=#515151;strokeColor=#515151;fontColor=#ffffff;" parent="1g7mfqq3Kxb2D1oXxZ0o-108" vertex="1">
          <mxGeometry x="5.74" y="-20" width="35.04" height="46.11" as="geometry" />
        </mxCell>
        <mxCell id="1g7mfqq3Kxb2D1oXxZ0o-110" value="LiveAccess" style="text;html=1;strokeColor=none;fillColor=none;align=center;verticalAlign=middle;whiteSpace=wrap;rounded=0;" parent="1g7mfqq3Kxb2D1oXxZ0o-108" vertex="1">
          <mxGeometry x="10" y="31.333333333333332" width="31.33" height="15.666666666666666" as="geometry" />
        </mxCell>
        <mxCell id="1g7mfqq3Kxb2D1oXxZ0o-111" value="" style="group" parent="1" vertex="1" connectable="0">
          <mxGeometry x="1107.8400000000001" y="671" width="40.78" height="47" as="geometry" />
        </mxCell>
        <mxCell id="1g7mfqq3Kxb2D1oXxZ0o-112" value="" style="sketch=0;pointerEvents=1;shadow=0;dashed=0;html=1;labelPosition=center;verticalLabelPosition=bottom;verticalAlign=top;align=center;shape=mxgraph.mscae.enterprise.database_server;fillColor=#515151;strokeColor=#515151;fontColor=#ffffff;" parent="1g7mfqq3Kxb2D1oXxZ0o-111" vertex="1">
          <mxGeometry x="5.74" y="-20" width="35.04" height="46.11" as="geometry" />
        </mxCell>
        <mxCell id="1g7mfqq3Kxb2D1oXxZ0o-113" value="LiveAccess" style="text;html=1;strokeColor=none;fillColor=none;align=center;verticalAlign=middle;whiteSpace=wrap;rounded=0;" parent="1g7mfqq3Kxb2D1oXxZ0o-111" vertex="1">
          <mxGeometry x="10" y="31.333333333333332" width="31.33" height="15.666666666666666" as="geometry" />
        </mxCell>
        <mxCell id="1g7mfqq3Kxb2D1oXxZ0o-114" value="" style="group" parent="1" vertex="1" connectable="0">
          <mxGeometry x="528.8" y="621" width="70" height="60" as="geometry" />
        </mxCell>
        <mxCell id="1g7mfqq3Kxb2D1oXxZ0o-115" value="" style="aspect=fixed;perimeter=ellipsePerimeter;html=1;align=center;shadow=0;dashed=0;spacingTop=3;image;image=img/lib/active_directory/database.svg;" parent="1g7mfqq3Kxb2D1oXxZ0o-114" vertex="1">
          <mxGeometry x="14.729999999999905" width="40.54" height="30" as="geometry" />
        </mxCell>
        <mxCell id="1g7mfqq3Kxb2D1oXxZ0o-116" value="Table SuperAdmin" style="text;html=1;strokeColor=none;fillColor=none;align=center;verticalAlign=middle;whiteSpace=wrap;rounded=0;" parent="1g7mfqq3Kxb2D1oXxZ0o-114" vertex="1">
          <mxGeometry y="30" width="70" height="30" as="geometry" />
        </mxCell>
        <mxCell id="1g7mfqq3Kxb2D1oXxZ0o-117" value="" style="sketch=0;aspect=fixed;html=1;points=[];align=center;image;fontSize=12;image=img/lib/mscae/Person.svg;" parent="1" vertex="1">
          <mxGeometry x="1308.8" y="446" width="37" height="50" as="geometry" />
        </mxCell>
        <mxCell id="1g7mfqq3Kxb2D1oXxZ0o-118" value="&lt;span style=&quot;color: rgb(0, 0, 0); font-family: Helvetica; font-size: 12px; font-style: normal; font-variant-ligatures: normal; font-variant-caps: normal; font-weight: 400; letter-spacing: normal; orphans: 2; text-align: center; text-indent: 0px; text-transform: none; widows: 2; word-spacing: 0px; -webkit-text-stroke-width: 0px; background-color: rgb(251, 251, 251); text-decoration-thickness: initial; text-decoration-style: initial; text-decoration-color: initial; float: none; display: inline !important;&quot;&gt;ClientUser&lt;/span&gt;" style="text;whiteSpace=wrap;html=1;" parent="1" vertex="1">
          <mxGeometry x="1298.8" y="506" width="70" height="30" as="geometry" />
        </mxCell>
        <mxCell id="D3cYJWHI2rNeeZ9iYBp1-24" style="edgeStyle=orthogonalEdgeStyle;rounded=0;orthogonalLoop=1;jettySize=auto;html=1;entryX=0.316;entryY=-0.022;entryDx=0;entryDy=0;entryPerimeter=0;" edge="1" parent="1" source="1g7mfqq3Kxb2D1oXxZ0o-119" target="1g7mfqq3Kxb2D1oXxZ0o-102">
          <mxGeometry relative="1" as="geometry" />
        </mxCell>
        <mxCell id="1g7mfqq3Kxb2D1oXxZ0o-119" value="" style="sketch=0;pointerEvents=1;shadow=0;dashed=0;html=1;labelPosition=center;verticalLabelPosition=bottom;verticalAlign=top;align=center;shape=mxgraph.mscae.enterprise.database_server;fillColor=#515151;strokeColor=#515151;fontColor=#ffffff;" parent="1" vertex="1">
          <mxGeometry x="791.8000000000001" y="351" width="35.04" height="46.11" as="geometry" />
        </mxCell>
        <mxCell id="1g7mfqq3Kxb2D1oXxZ0o-120" value="Fournisseur d&#39;identité" style="text;html=1;strokeColor=none;fillColor=none;align=center;verticalAlign=middle;whiteSpace=wrap;rounded=0;" parent="1" vertex="1">
          <mxGeometry x="749.32" y="411" width="120" height="15.67" as="geometry" />
        </mxCell>
        <mxCell id="1g7mfqq3Kxb2D1oXxZ0o-121" value="&lt;u style=&quot;font-weight: bold; font-size: 16px;&quot;&gt;Scénario 1&lt;/u&gt;&lt;b style=&quot;font-size: 16px;&quot;&gt;&amp;nbsp;: Authentification SSO de LiveAccess vers MUM&amp;nbsp;&lt;/b&gt;" style="text;html=1;strokeColor=none;fillColor=none;align=center;verticalAlign=middle;whiteSpace=wrap;rounded=0;fontSize=16;" parent="1" vertex="1">
          <mxGeometry x="403.06" y="271" width="770" height="30" as="geometry" />
        </mxCell>
        <mxCell id="1g7mfqq3Kxb2D1oXxZ0o-122" value="" style="group" parent="1" vertex="1" connectable="0">
          <mxGeometry x="478.79999999999995" y="491" width="170" height="80" as="geometry" />
        </mxCell>
        <mxCell id="1g7mfqq3Kxb2D1oXxZ0o-123" value="" style="aspect=fixed;perimeter=ellipsePerimeter;html=1;align=center;shadow=0;dashed=0;spacingTop=3;image;image=img/lib/active_directory/database.svg;" parent="1g7mfqq3Kxb2D1oXxZ0o-122" vertex="1">
          <mxGeometry x="64.72999999999995" width="40.54" height="30" as="geometry" />
        </mxCell>
        <mxCell id="1g7mfqq3Kxb2D1oXxZ0o-124" value="Table Tenant &lt;br&gt;&amp;lt;-&amp;gt; &lt;br&gt;Table Mockup" style="text;html=1;strokeColor=none;fillColor=none;align=center;verticalAlign=middle;whiteSpace=wrap;rounded=0;" parent="1g7mfqq3Kxb2D1oXxZ0o-122" vertex="1">
          <mxGeometry y="30" width="170" height="50" as="geometry" />
        </mxCell>
        <mxCell id="1g7mfqq3Kxb2D1oXxZ0o-126" value="" style="group" parent="1" vertex="1" connectable="0">
          <mxGeometry x="277.21" y="545" width="70.00000000000001" height="90" as="geometry" />
        </mxCell>
        <mxCell id="1g7mfqq3Kxb2D1oXxZ0o-103" value="" style="sketch=0;aspect=fixed;html=1;points=[];align=center;image;fontSize=12;image=img/lib/mscae/Person.svg;" parent="1g7mfqq3Kxb2D1oXxZ0o-126" vertex="1">
          <mxGeometry x="16.5" width="37" height="50" as="geometry" />
        </mxCell>
        <mxCell id="1g7mfqq3Kxb2D1oXxZ0o-104" value="&lt;span style=&quot;color: rgb(0, 0, 0); font-family: Helvetica; font-size: 12px; font-style: normal; font-variant-ligatures: normal; font-variant-caps: normal; font-weight: 400; letter-spacing: normal; orphans: 2; text-align: center; text-indent: 0px; text-transform: none; widows: 2; word-spacing: 0px; -webkit-text-stroke-width: 0px; background-color: rgb(251, 251, 251); text-decoration-thickness: initial; text-decoration-style: initial; text-decoration-color: initial; float: none; display: inline !important;&quot;&gt;SuperAdmin&lt;/span&gt;" style="text;whiteSpace=wrap;html=1;" parent="1g7mfqq3Kxb2D1oXxZ0o-126" vertex="1">
          <mxGeometry y="60" width="70" height="30" as="geometry" />
        </mxCell>
        <mxCell id="1g7mfqq3Kxb2D1oXxZ0o-127" value="Retenu" style="rounded=0;whiteSpace=wrap;html=1;fillColor=#d5e8d4;strokeColor=#82b366;" parent="1" vertex="1">
          <mxGeometry x="1163.21" y="1911" width="120" height="60" as="geometry" />
        </mxCell>
        <mxCell id="1g7mfqq3Kxb2D1oXxZ0o-129" value="Retenu" style="rounded=0;whiteSpace=wrap;html=1;fillColor=#d5e8d4;strokeColor=#82b366;" parent="1" vertex="1">
          <mxGeometry x="1178.8000000000002" y="271" width="120" height="60" as="geometry" />
        </mxCell>
        <mxCell id="1g7mfqq3Kxb2D1oXxZ0o-133" value="&lt;b style=&quot;font-size: 18px;&quot;&gt;Avantages :&lt;/b&gt;&lt;br style=&quot;font-size: 18px;&quot;&gt;- Possibilité de gérer dans MUM les utilisateurs présents dans plusieurs instances de Live Access&lt;br style=&quot;font-size: 18px;&quot;&gt;&lt;br style=&quot;font-size: 18px;&quot;&gt;&lt;b style=&quot;font-size: 18px;&quot;&gt;Contraintes&lt;/b&gt; :&lt;br style=&quot;border-color: var(--border-color); font-size: 18px;&quot;&gt;- Il faudra synchroniser le userName et le mdp dans MUM&lt;br style=&quot;font-size: 18px;&quot;&gt;&lt;br style=&quot;font-size: 18px;&quot;&gt;&lt;b style=&quot;font-size: 18px;&quot;&gt;Inconvénients :&lt;/b&gt;&lt;br style=&quot;font-size: 18px;&quot;&gt;- Risque de sécurité lors de la sync des users&amp;nbsp;&lt;br style=&quot;font-size: 18px;&quot;&gt;&amp;nbsp;" style="text;html=1;strokeColor=none;fillColor=none;align=left;verticalAlign=middle;whiteSpace=wrap;rounded=0;fontSize=18;" parent="1" vertex="1">
          <mxGeometry x="350.57" y="1480" width="798.05" height="200" as="geometry" />
        </mxCell>
        <mxCell id="1g7mfqq3Kxb2D1oXxZ0o-134" value="Mitigé" style="rounded=0;whiteSpace=wrap;html=1;fillColor=#fff2cc;strokeColor=#d6b656;" parent="1" vertex="1">
          <mxGeometry x="1178.8000000000002" y="940" width="120" height="60" as="geometry" />
        </mxCell>
        <mxCell id="D3cYJWHI2rNeeZ9iYBp1-3" value="" style="group" vertex="1" connectable="0" parent="1">
          <mxGeometry x="307.21" y="2020" width="70" height="90" as="geometry" />
        </mxCell>
        <mxCell id="D3cYJWHI2rNeeZ9iYBp1-1" value="" style="sketch=0;aspect=fixed;html=1;points=[];align=center;image;fontSize=12;image=img/lib/mscae/Person.svg;" vertex="1" parent="D3cYJWHI2rNeeZ9iYBp1-3">
          <mxGeometry x="10" width="37" height="50" as="geometry" />
        </mxCell>
        <mxCell id="D3cYJWHI2rNeeZ9iYBp1-2" value="&lt;span style=&quot;color: rgb(0, 0, 0); font-family: Helvetica; font-size: 12px; font-style: normal; font-variant-ligatures: normal; font-variant-caps: normal; font-weight: 400; letter-spacing: normal; orphans: 2; text-align: center; text-indent: 0px; text-transform: none; widows: 2; word-spacing: 0px; -webkit-text-stroke-width: 0px; background-color: rgb(251, 251, 251); text-decoration-thickness: initial; text-decoration-style: initial; text-decoration-color: initial; float: none; display: inline !important;&quot;&gt;ClientUser&lt;/span&gt;" style="text;whiteSpace=wrap;html=1;" vertex="1" parent="D3cYJWHI2rNeeZ9iYBp1-3">
          <mxGeometry y="60" width="70" height="30" as="geometry" />
        </mxCell>
        <mxCell id="D3cYJWHI2rNeeZ9iYBp1-4" style="edgeStyle=orthogonalEdgeStyle;rounded=0;orthogonalLoop=1;jettySize=auto;html=1;entryX=0.239;entryY=-0.069;entryDx=0;entryDy=0;entryPerimeter=0;" edge="1" parent="1" source="D3cYJWHI2rNeeZ9iYBp1-1" target="1g7mfqq3Kxb2D1oXxZ0o-8">
          <mxGeometry relative="1" as="geometry" />
        </mxCell>
        <mxCell id="D3cYJWHI2rNeeZ9iYBp1-5" style="edgeStyle=orthogonalEdgeStyle;rounded=0;orthogonalLoop=1;jettySize=auto;html=1;entryX=0.588;entryY=1.213;entryDx=0;entryDy=0;entryPerimeter=0;" edge="1" parent="1" source="1g7mfqq3Kxb2D1oXxZ0o-8" target="1g7mfqq3Kxb2D1oXxZ0o-43">
          <mxGeometry relative="1" as="geometry" />
        </mxCell>
        <mxCell id="D3cYJWHI2rNeeZ9iYBp1-8" value="Tenant = FFF + login +mdp" style="text;html=1;strokeColor=none;fillColor=none;align=center;verticalAlign=middle;whiteSpace=wrap;rounded=0;" vertex="1" parent="1">
          <mxGeometry x="382.01" y="2016.67" width="146.79" height="30" as="geometry" />
        </mxCell>
        <mxCell id="D3cYJWHI2rNeeZ9iYBp1-9" value="" style="group" vertex="1" connectable="0" parent="1">
          <mxGeometry x="266" y="1131" width="70" height="90" as="geometry" />
        </mxCell>
        <mxCell id="1g7mfqq3Kxb2D1oXxZ0o-62" value="" style="sketch=0;aspect=fixed;html=1;points=[];align=center;image;fontSize=12;image=img/lib/mscae/Person.svg;" parent="D3cYJWHI2rNeeZ9iYBp1-9" vertex="1">
          <mxGeometry x="10" width="37" height="50" as="geometry" />
        </mxCell>
        <mxCell id="1g7mfqq3Kxb2D1oXxZ0o-63" value="&lt;span style=&quot;color: rgb(0, 0, 0); font-family: Helvetica; font-size: 12px; font-style: normal; font-variant-ligatures: normal; font-variant-caps: normal; font-weight: 400; letter-spacing: normal; orphans: 2; text-align: center; text-indent: 0px; text-transform: none; widows: 2; word-spacing: 0px; -webkit-text-stroke-width: 0px; background-color: rgb(251, 251, 251); text-decoration-thickness: initial; text-decoration-style: initial; text-decoration-color: initial; float: none; display: inline !important;&quot;&gt;ClientUser&lt;/span&gt;" style="text;whiteSpace=wrap;html=1;" parent="D3cYJWHI2rNeeZ9iYBp1-9" vertex="1">
          <mxGeometry y="60" width="70" height="30" as="geometry" />
        </mxCell>
        <mxCell id="D3cYJWHI2rNeeZ9iYBp1-11" style="edgeStyle=orthogonalEdgeStyle;rounded=0;orthogonalLoop=1;jettySize=auto;html=1;entryX=0;entryY=0.5;entryDx=0;entryDy=0;entryPerimeter=0;" edge="1" parent="1" source="1g7mfqq3Kxb2D1oXxZ0o-62" target="1g7mfqq3Kxb2D1oXxZ0o-47">
          <mxGeometry relative="1" as="geometry" />
        </mxCell>
        <mxCell id="D3cYJWHI2rNeeZ9iYBp1-12" value="login + mdp" style="text;html=1;strokeColor=none;fillColor=none;align=center;verticalAlign=middle;whiteSpace=wrap;rounded=0;" vertex="1" parent="1">
          <mxGeometry x="326.01" y="1131" width="102.79" height="30" as="geometry" />
        </mxCell>
        <mxCell id="D3cYJWHI2rNeeZ9iYBp1-14" style="edgeStyle=orthogonalEdgeStyle;rounded=0;orthogonalLoop=1;jettySize=auto;html=1;" edge="1" parent="1" source="1g7mfqq3Kxb2D1oXxZ0o-47" target="1g7mfqq3Kxb2D1oXxZ0o-65">
          <mxGeometry relative="1" as="geometry" />
        </mxCell>
        <mxCell id="D3cYJWHI2rNeeZ9iYBp1-21" style="edgeStyle=orthogonalEdgeStyle;rounded=0;orthogonalLoop=1;jettySize=auto;html=1;entryX=1;entryY=0.5;entryDx=0;entryDy=0;entryPerimeter=0;" edge="1" parent="1" source="1g7mfqq3Kxb2D1oXxZ0o-106" target="1g7mfqq3Kxb2D1oXxZ0o-119">
          <mxGeometry relative="1" as="geometry" />
        </mxCell>
        <mxCell id="D3cYJWHI2rNeeZ9iYBp1-22" style="edgeStyle=orthogonalEdgeStyle;rounded=0;orthogonalLoop=1;jettySize=auto;html=1;entryX=0.5;entryY=1;entryDx=0;entryDy=0;" edge="1" parent="1" source="1g7mfqq3Kxb2D1oXxZ0o-109" target="1g7mfqq3Kxb2D1oXxZ0o-120">
          <mxGeometry relative="1" as="geometry" />
        </mxCell>
        <mxCell id="D3cYJWHI2rNeeZ9iYBp1-23" style="edgeStyle=orthogonalEdgeStyle;rounded=0;orthogonalLoop=1;jettySize=auto;html=1;entryX=0.335;entryY=1.355;entryDx=0;entryDy=0;entryPerimeter=0;" edge="1" parent="1" source="1g7mfqq3Kxb2D1oXxZ0o-112" target="1g7mfqq3Kxb2D1oXxZ0o-120">
          <mxGeometry relative="1" as="geometry" />
        </mxCell>
      </root>
    </mxGraphModel>
  </diagram>
</mxfile>
